<!DOCTYPE svg PUBLIC "-//W3C//DTD SVG 1.1//EN" "http://www.w3.org/Graphics/SVG/1.1/DTD/svg11.dtd">
<!-- Uploaded to: SVG Repo, www.svgrepo.com, Transformed by: SVG Repo Mixer Tools -->
<svg width="800px" height="800px" viewBox="-7.2 -7.2 86.40 86.40" id="emoji" xmlns="http://www.w3.org/2000/svg" fill="#000000">
<g id="SVGRepo_bgCarrier" stroke-width="0">
<path transform="translate(-7.2, -7.2), scale(2.7)" d="M16,28.371500305831432C18.042938416157742,28.260569197227984,20.00308065983543,29.96085319365815,21.978252665838355,29.427375331163855C23.940452836035732,28.897401055808878,25.234882216898562,27.049756695386915,26.569452109154064,25.51677742509466C27.89123449242106,23.998486771945508,29.049619185627943,22.35374569062349,29.772097795804946,20.474825832302823C30.51295114994742,18.54811954703199,30.874483035047245,16.505216873257456,30.828094531256166,14.441504463845163C30.77981823903908,12.293808910276258,30.913680478234802,9.822223715260652,29.49635900469115,8.207873495561739C28.03366018045721,6.541837799121216,25.24248879699061,7.033813581362187,23.33399823662979,5.9056174223352915C21.634707745484743,4.901089003385023,20.811261489096932,2.721764471093456,18.977928561235696,1.9899476269347218C17.097909937960246,1.2394951177714622,14.88596331122941,1.1016572930061075,12.97548589686474,1.7707798838476076C11.086460457369373,2.4323891689073758,10.106486413502301,4.4830680033836865,8.48991392252077,5.6632533017753115C6.877238032865543,6.840593870577232,4.515168479690496,7.066795743749298,3.427547377523142,8.741291094039163C2.343335603273564,10.410537462183912,2.978683843525996,12.631872349706473,2.6849569037244088,14.600532577836418C2.379082936003565,16.650606416753238,0.8366056236449528,18.755975059314366,1.648813774316352,20.662983069030997C2.4805672864472657,22.61588222232368,5.425753957855889,22.665667417547333,6.806572861776294,24.277798976214132C8.233002065456178,25.94318140176416,7.722383618495719,29.200724287033776,9.725527658536842,30.092695615771113C11.728629026989395,30.9846479434617,13.81051158615961,28.490389047215288,16,28.371500305831432" fill="#0a691c" strokewidth="0"/>
</g>
<g id="SVGRepo_tracerCarrier" stroke-linecap="round" stroke-linejoin="round"/>
<g id="SVGRepo_iconCarrier"> <g id="color"> <path fill="#FFFFFF" stroke="none" d="M55.0252,31.0855l1.2292,9.9167c0,0-1,6.75,4.6667,3.8333l-1.6667-3.1667l1.0833-4.5833l-0.9167-4.1667 L55.0252,31.0855z"/> <path fill="#A57939" stroke="none" d="M17.7127,20.398l-10.375,5.625l0.625,2.1875c0,0,6.625,0.3125,7.25,1.6875s-2.375,13.8125,10.875,18.4375 l3.375,15.25c0,0-1.75,4.5625-1.5625,4.4375s2.875-0.0625,2.875-0.0625l1.875-5.5625l-0.25-7.8125l-0.5-5l4.3125,0.3125 l7.25-1.0625l4.3125-0.1875l2.75,4.375l-2.9375,10.8125l-2.6875,4.125h3.875l5.5-10.0625l1.25-3.75l-1.75-7.1875l3.3125-9.8125 c0,0,0.3125-3.5625-2.0625-6.0625s-13.25,0.5-13.25,0.5L30.2127,30.148l-4.3125,0.3125l-1.4375-2.5l-0.6875-2.8125 c0,0,3-0.125,3.1875-3.1875c0,0-3.375-2.75-6.5-0.1875C20.4627,21.773,17.9627,19.7105,17.7127,20.398z"/> <polygon fill="#6A462F" stroke="none" points="20.921,45.5855 22.0877,51.3355 23.8377,62.4188 21.921,67.8355 24.8377,67.8355 27.421,62.1688 27.3377,53.5021 26.0877,48.3355"/> </g> <g id="hair"/> <g id="skin"/> <g id="skin-shadow"/> <g id="line"> <path fill="none" stroke="#000000" stroke-linecap="round" stroke-linejoin="round" stroke-miterlimit="10" stroke-width="2" d="M28.1685,67.0208l1.1788-3.4527L25.9181,48.107c-12.3235-3.8578-10.3927-17.6861-10.3927-17.6861 c-0.1921-1.7655-3.3238-1.8171-3.3238-1.8171l-2.6499,0.2126c-0.8005,0.0642-1.544-0.4182-1.8116-1.1753l-0.2103-0.595 c-0.2696-0.7629,0.0713-1.6072,0.795-1.969l9.0205-4.5102c0,0,2.2172-0.8563,3.168,1.5187c0,0,1.1184-2.6975,6.4764-0.5542 c0,0-0.4286,4.0721-5.1437,4.0721"/> <path fill="none" stroke="#000000" stroke-linecap="round" stroke-linejoin="round" stroke-miterlimit="10" stroke-width="2" d="M33.0263,39.7485l0.5358,5.6795c0,0-3.0005,3.0188-2.1432,9.0642"/> <polyline fill="none" stroke="#000000" stroke-linecap="round" stroke-linejoin="round" stroke-miterlimit="10" stroke-width="2" points="23.0964,51.1838 24.0608,62.6628 22.2391,66.8421"/> <path fill="none" stroke="#000000" stroke-linecap="round" stroke-linejoin="round" stroke-miterlimit="10" stroke-width="2" d="M23.7837,28.6554c0,0,0.671,3.2268,4.8768,1.8649c0.9554-0.3094,1.9838-0.2964,2.9608-0.064 c2.4541,0.5839,10.0605,1.4413,13.8729,0.783c0.5614-0.0969,1.1066-0.2553,1.637-0.4631c1.5592-0.6108,6.7173-2.1085,11.707,2.3083 c2.0034,1.7733,1.7879,4.751,1.0301,7.2283C59.8581,40.3464,59,43.023,60.4121,44.0855"/> <polyline fill="none" stroke="#000000" stroke-linecap="round" stroke-linejoin="round" stroke-miterlimit="10" stroke-width="2" points="47.6356,37.391 46.7784,46.5842 50.8505,53.2505 47.4678,63.8914 45.1174,67.0208"/> <path fill="none" stroke="#000000" stroke-linecap="round" stroke-linejoin="round" stroke-miterlimit="10" stroke-width="2" d="M56.125,37.391c0,0,0.9716,4.995-2.0778,9.7294c0,0,0.1072,3.88,1.3931,6.2375l-2.036,4.1551"/> <path fill="none" stroke="#000000" stroke-linecap="round" stroke-linejoin="round" stroke-miterlimit="10" stroke-width="2" d="M18.2026,20.2453c0,0,0.8573-4.1257,7.5548-2.4647c0,0,6.001,0.4822,7.9835-5.1437s-2.1788-7.698-2.1788-7.698"/> <path fill="none" stroke="#000000" stroke-linecap="round" stroke-linejoin="round" stroke-miterlimit="10" stroke-width="2" d="M37.8498,8.1547c0,0,2.8621,1.9342,0.2904,4.8651c-2.5013,2.8506-4.8487,2.0226-4.8487,2.0226"/> <path fill="none" stroke="#000000" stroke-linecap="round" stroke-linejoin="round" stroke-miterlimit="10" stroke-width="2" d="M14.5055,11.0295c0,0-1.2151,4.9964,1.2859,6.9654s2.4111,2.5629,2.4111,2.5629"/> <path fill="none" stroke="#000000" stroke-linecap="round" stroke-linejoin="round" stroke-miterlimit="10" stroke-width="2" d="M27.847,10.6544c0,0-1.3159,1.711,0.1307,4.1802c0,0,0.6376,1.6171-0.6575,2.8709"/> <path fill="none" stroke="#000000" stroke-linecap="round" stroke-linejoin="round" stroke-miterlimit="10" stroke-width="2" d="M20.5065,17.7055c0,0-1.9289-2.3896,0.6965-5.015"/> <path fill="none" stroke="#000000" stroke-linecap="round" stroke-linejoin="round" stroke-miterlimit="10" stroke-width="2" d="M36.24,48.9236c4.753,0.5107,8.8861,0.5288,11.6242-0.5618"/> </g> </g>
</svg>